<?xml version="1.0" encoding="UTF-8"?>
<svg id="_Слой_1" data-name="Слой 1" xmlns="http://www.w3.org/2000/svg" viewBox="0 0 13.881 30.724">
  <defs>
    <style>
      .cls-1 {
        stroke: #964026;
      }

      .cls-1, .cls-2, .cls-3, .cls-4, .cls-5, .cls-6 {
        fill: none;
        stroke-width: 2px;
      }

      .cls-7 {
        fill: #4c4c4c;
      }

      .cls-2 {
        stroke: #747474;
      }

      .cls-3 {
        stroke: #575757;
      }

      .cls-4 {
        stroke: #4a4a4a;
      }

      .cls-8 {
        fill: #818181;
      }

      .cls-9 {
        fill: #ff531f;
      }

      .cls-5 {
        stroke: #595959;
      }

      .cls-10 {
        fill: #2d2d2d;
      }

      .cls-6 {
        stroke: #3d3d3d;
      }

      .cls-11 {
        fill: #666;
      }
    </style>
  </defs>
  <g>
    <path class="cls-3" d="M9.033,3.131l.027,4.217c0,.12,.124,.202,.233,.153l3.427-1.509c.1-.044,.164-.151,.162-.269l-.044-4.359c0-.06-.062-.1-.115-.075l-3.587,1.68c-.062,.029-.102,.093-.102,.162" vector-effect="non-scaling-stroke"/>
    <path class="cls-6" d="M1.206,1.435c-.089-.038-.189,.022-.189,.113l-.018,4.37c0,.067,.042,.127,.107,.155l3.356,1.443c.146,.062,.309-.04,.317-.198,.081-1.401,.087-2.816,.018-4.244-.002-.064-.044-.124-.109-.151L1.206,1.435" vector-effect="non-scaling-stroke"/>
    <path class="cls-6" d="M10.493,12.125l1.527,.007c.122,0,.206-.124,.16-.24-.728-1.875-1.989-3.075-3.782-3.6-.419-.123-.738-.152-.957-.089" vector-effect="non-scaling-stroke"/>
    <path class="cls-4" d="M7.441,8.203c-.337-.13-.688-.167-1.052-.111-2.342,.36-3.926,1.63-4.752,3.811-.042,.111,.04,.231,.16,.231l8.696-.009" vector-effect="non-scaling-stroke"/>
    <path class="cls-5" d="M7.441,8.203c1.492,.938,2.509,2.245,3.052,3.922" vector-effect="non-scaling-stroke"/>
    <path class="cls-4" d="M10.715,24.832l1.594,.027c.069,.002,.124-.053,.127-.12,.092-3.835,.092-7.667,.002-11.495-.002-.06-.051-.107-.113-.109l-1.618-.038c-.04-.002-.08,.031-.1,.082-.01,.03-.03,.054-.058,.073" vector-effect="non-scaling-stroke"/>
    <path class="cls-3" d="M10.549,13.253c-.102-.081-.287-.121-.555-.12-2.826,.018-5.587,.005-8.283-.038-.204-.004-.373,.162-.373,.366v11.054c0,.173,.14,.315,.313,.315l9.065,.002" vector-effect="non-scaling-stroke"/>
    <path class="cls-2" d="M10.549,13.253c.081,.175,.118,.449,.111,.823-.047,2.486-.029,6.071,.055,10.756" vector-effect="non-scaling-stroke"/>
    <path class="cls-4" d="M10.216,25.904l-8.459-.009c-.087,0-.144,.089-.109,.169,.857,1.983,2.325,3.184,4.406,3.605,.503,.102,1.021,.062,1.554-.12" vector-effect="non-scaling-stroke"/>
    <path class="cls-6" d="M7.608,29.549c.59,.047,1.224-.112,1.9-.477,1.225-.663,2.1-1.657,2.624-2.981,.036-.089-.027-.186-.12-.186h-1.796" vector-effect="non-scaling-stroke"/>
    <path class="cls-5" d="M7.608,29.549c1.287-.907,2.208-2.055,2.761-3.445,.044-.114-.007-.181-.153-.2" vector-effect="non-scaling-stroke"/>
    <path class="cls-3" d="M9.492,18.806c.225-.413,.447-.828,.666-1.245,.148-.281,.209-.509,.184-.684-.05-.345-.329-.463-.837-.355-.422,.09-.903,.176-1.445,.257-.149,.022-.297-.036-.391-.153-.271-.336-.539-.633-.806-.89-.016-.015-.097-.101-.242-.257-.238-.26-.471-.284-.699-.071-.118,.112-.196,.291-.233,.535-.067,.45-.138,.934-.213,1.454-.018,.124-.095,.233-.209,.291-.45,.228-.869,.433-1.256,.615-.731,.34-.746,.712-.044,1.116,.447,.256,.901,.498,1.363,.726,.062,.031,.107,.091,.115,.16,.071,.482,.146,.964,.224,1.445,.044,.28,.117,.478,.218,.595,.207,.243,.469,.209,.786-.102,.402-.395,.803-.792,1.201-1.192,.049-.049,.122-.067,.189-.051,.527,.129,1.06,.22,1.6,.275,.62,.064,.818-.204,.595-.803-.065-.172-.32-.661-.766-1.469-.033-.06-.033-.135,0-.195" vector-effect="non-scaling-stroke"/>
    <path class="cls-1" d="M6.343,19.636l.18,.901c.078,.398,.213,.423,.404,.075,.326-.59,.795-.774,1.407-.55,.115,.043,.198,.067,.249,.071,.183,.019,.259-.045,.226-.193-.012-.052-.056-.135-.133-.251-.352-.53-.32-1.088,.098-1.674,.185-.259,.142-.373-.129-.342-.052,.006-.141,.03-.266,.073-.602,.21-1.08,.024-1.434-.559-.164-.271-.303-.258-.417,.038-.07,.178-.118,.436-.146,.775-.007,.075-.036,.144-.087,.193-.284,.275-.619,.479-1.003,.613-.204,.071-.19,.159,.042,.264l.89,.4c.06,.027,.104,.089,.12,.166" vector-effect="non-scaling-stroke"/>
  </g>
  <path class="cls-10" d="M10.779,7.857c-.326,.144-.352,.315-.08,.515,1.19,.88,1.992,1.973,2.408,3.278,.218,.685,.326,1.981,.326,3.886v8.417c0,3.07-1.457,5.183-4.37,6.339-.336,.133-.842,.237-1.518,.311-.547,.058-1.059,.047-1.536-.033-2.698-.459-4.495-2.035-5.394-4.73-.182-.547-.266-1.338-.251-2.373,.016-1.03,.024-1.557,.022-1.583-.015-2.616-.001-5.232,.04-7.846,.016-1.101,.132-1.95,.348-2.548,.454-1.262,1.253-2.306,2.395-3.132,.247-.178,.231-.328-.049-.451L.29,6.68c-.164-.071-.271-.235-.269-.417L.074,.501C.079,.03,.289-.109,.705,.084L5.583,2.334c.109,.051,.178,.162,.18,.289,.015,1.315,.019,2.671,.013,4.066,0,.194,.03,.34,.089,.437,.124,.206,.297,.187,.519-.055,.047-.051,.073-.122,.073-.195l.053-6.048c.002-.075,.027-.144,.071-.195,.269-.299,.494-.298,.675,.002,.077,.127,.115,.303,.115,.526,.009,1.971,.018,3.941,.027,5.911,0,.069,.042,.129,.104,.146,.176,.046,.343,.019,.499-.08,.053-.036,.087-.102,.087-.178l-.027-4.286c-.002-.158,.091-.3,.237-.366L13.168,.097c.389-.178,.587-.053,.593,.375l.064,5.731c.002,.186-.102,.353-.262,.424l-2.783,1.23Zm-1.747-4.725l.027,4.217c0,.12,.124,.202,.233,.153l3.427-1.509c.1-.044,.164-.151,.162-.269l-.044-4.359c0-.06-.062-.1-.115-.075l-3.587,1.68c-.062,.029-.102,.093-.102,.162ZM1.206,1.435c-.089-.038-.189,.022-.189,.113l-.018,4.37c0,.067,.042,.127,.107,.155l3.356,1.443c.146,.062,.309-.04,.317-.198,.081-1.401,.087-2.816,.018-4.244-.002-.064-.044-.124-.109-.151L1.206,1.435ZM10.493,12.125l1.527,.007c.122,0,.206-.124,.16-.24-.728-1.875-1.989-3.075-3.782-3.6-.419-.123-.738-.152-.957-.089-.337-.13-.688-.167-1.052-.111-2.342,.36-3.926,1.63-4.752,3.811-.042,.111,.04,.231,.16,.231l8.696-.009Zm.222,12.707l1.594,.027c.069,.002,.124-.053,.127-.12,.092-3.835,.092-7.667,.002-11.495-.002-.06-.051-.107-.113-.109l-1.618-.038c-.04-.002-.08,.031-.1,.082-.01,.03-.03,.054-.058,.073-.102-.081-.287-.121-.555-.12-2.826,.018-5.587,.005-8.283-.038-.204-.004-.373,.162-.373,.366v11.054c0,.173,.14,.315,.313,.315l9.065,.002Zm-.499,1.072l-8.459-.009c-.087,0-.144,.089-.109,.169,.857,1.983,2.325,3.184,4.406,3.605,.503,.102,1.021,.062,1.554-.12,.59,.047,1.224-.112,1.9-.477,1.225-.663,2.1-1.657,2.624-2.981,.036-.089-.027-.186-.12-.186h-1.796Z"/>
  <path class="cls-8" d="M9.135,2.969l3.587-1.68c.053-.024,.115,.016,.115,.075l.044,4.359c.002,.118-.062,.224-.162,.269l-3.427,1.509c-.109,.049-.233-.033-.233-.153l-.027-4.217c0-.069,.04-.133,.102-.162Z"/>
  <path class="cls-7" d="M1.206,1.435l3.483,1.489c.064,.027,.107,.087,.109,.151,.07,1.428,.064,2.843-.018,4.244-.009,.158-.171,.26-.317,.198l-3.356-1.443c-.064-.029-.107-.089-.107-.155l.018-4.37c0-.091,.1-.151,.189-.113Z"/>
  <path class="cls-11" d="M7.441,8.203c1.492,.938,2.509,2.245,3.052,3.922l-8.696,.009c-.12,0-.202-.12-.16-.231,.826-2.181,2.41-3.451,4.752-3.811,.364-.056,.715-.019,1.052,.111Z"/>
  <path class="cls-7" d="M10.493,12.125c-.543-1.677-1.56-2.984-3.052-3.922,.219-.064,.538-.034,.957,.089,1.793,.525,3.054,1.725,3.782,3.6,.047,.115-.038,.24-.16,.24l-1.527-.007Z"/>
  <path class="cls-8" d="M10.549,13.253c.081,.175,.118,.449,.111,.823-.047,2.486-.029,6.071,.055,10.756l-9.065-.002c-.173,0-.313-.142-.313-.315V13.461c0-.204,.169-.371,.373-.366,2.696,.043,5.457,.055,8.283,.038,.268-.001,.453,.038,.555,.12Zm-1.057,5.553c.225-.413,.447-.828,.666-1.245,.148-.281,.209-.509,.184-.684-.05-.345-.329-.463-.837-.355-.422,.09-.903,.176-1.445,.257-.149,.022-.297-.036-.391-.153-.271-.336-.539-.633-.806-.89-.016-.015-.097-.101-.242-.257-.238-.26-.471-.284-.699-.071-.118,.112-.196,.291-.233,.535-.067,.45-.138,.934-.213,1.454-.018,.124-.095,.233-.209,.291-.45,.228-.869,.433-1.256,.615-.731,.34-.746,.712-.044,1.116,.447,.256,.901,.498,1.363,.726,.062,.031,.107,.091,.115,.16,.071,.482,.146,.964,.224,1.445,.044,.28,.117,.478,.218,.595,.207,.243,.469,.209,.786-.102,.402-.395,.803-.792,1.201-1.192,.049-.049,.122-.067,.189-.051,.527,.129,1.06,.22,1.6,.275,.62,.064,.818-.204,.595-.803-.065-.172-.32-.661-.766-1.469-.033-.06-.033-.135,0-.195Z"/>
  <path class="cls-11" d="M10.715,24.832c-.084-4.685-.103-8.27-.055-10.756,.007-.374-.03-.649-.111-.823,.028-.019,.047-.044,.058-.073,.02-.051,.06-.084,.1-.082l1.618,.038c.062,.002,.111,.049,.113,.109,.09,3.828,.09,7.66-.002,11.495-.002,.067-.058,.122-.127,.12l-1.594-.027Z"/>
  <path class="cls-10" d="M9.492,19.001c.445,.808,.701,1.298,.766,1.469,.223,.599,.025,.867-.595,.803-.54-.055-1.074-.146-1.6-.275-.067-.016-.14,.002-.189,.051-.398,.4-.798,.797-1.201,1.192-.317,.311-.579,.345-.786,.102-.101-.117-.173-.315-.218-.595-.078-.481-.153-.963-.224-1.445-.009-.069-.053-.129-.115-.16-.462-.228-.916-.47-1.363-.726-.701-.404-.687-.776,.044-1.116,.388-.182,.806-.387,1.256-.615,.113-.058,.191-.166,.209-.291,.075-.519,.146-1.004,.213-1.454,.037-.244,.115-.422,.233-.535,.228-.213,.461-.189,.699,.071,.145,.157,.226,.243,.242,.257,.266,.257,.535,.554,.806,.89,.093,.118,.242,.175,.391,.153,.542-.081,1.023-.167,1.445-.257,.508-.108,.786,.01,.837,.355,.025,.175-.036,.402-.184,.684-.219,.417-.441,.832-.666,1.245-.033,.06-.033,.135,0,.195Zm-3.15,.635l.18,.901c.078,.398,.213,.423,.404,.075,.326-.59,.795-.774,1.407-.55,.115,.043,.198,.067,.249,.071,.183,.019,.259-.045,.226-.193-.012-.052-.056-.135-.133-.251-.352-.53-.32-1.088,.098-1.674,.185-.259,.142-.373-.129-.342-.052,.006-.141,.03-.266,.073-.602,.21-1.08,.024-1.434-.559-.164-.271-.303-.258-.417,.038-.07,.178-.118,.436-.146,.775-.007,.075-.036,.144-.087,.193-.284,.275-.619,.479-1.003,.613-.204,.071-.19,.159,.042,.264l.89,.4c.06,.027,.104,.089,.12,.166Z"/>
  <path class="cls-9" d="M6.223,19.47l-.89-.4c-.232-.105-.246-.193-.042-.264,.385-.133,.719-.337,1.003-.613,.051-.049,.08-.118,.087-.193,.028-.339,.077-.597,.146-.775,.114-.296,.253-.309,.417-.038,.354,.583,.832,.769,1.434,.559,.126-.043,.215-.067,.266-.073,.271-.031,.314,.083,.129,.342-.417,.586-.45,1.144-.098,1.674,.077,.115,.121,.199,.133,.251,.033,.148-.043,.212-.226,.193-.05-.004-.133-.028-.249-.071-.613-.223-1.082-.04-1.407,.55-.191,.348-.326,.323-.404-.075l-.18-.901c-.016-.078-.06-.14-.12-.166Z"/>
  <path class="cls-7" d="M7.608,29.549c1.287-.907,2.208-2.055,2.761-3.445,.044-.114-.007-.181-.153-.2h1.796c.093,0,.155,.098,.12,.186-.524,1.324-1.398,2.318-2.624,2.981-.676,.365-1.31,.525-1.9,.477Z"/>
  <path class="cls-11" d="M10.216,25.904c.146,.019,.198,.086,.153,.2-.553,1.389-1.474,2.538-2.761,3.445-.533,.182-1.051,.222-1.554,.12-2.08-.42-3.549-1.622-4.406-3.605-.036-.08,.022-.169,.109-.169l8.459,.009Z"/>
</svg>