<?xml version="1.0" encoding="utf-8"?>
<!-- Generator: Adobe Illustrator 26.4.1, SVG Export Plug-In . SVG Version: 6.00 Build 0)  -->
<svg version="1.1" id="Слой_1" xmlns="http://www.w3.org/2000/svg" xmlns:xlink="http://www.w3.org/1999/xlink" x="0px" y="0px"
	 viewBox="0 0 32 32" style="enable-background:new 0 0 32 32;" xml:space="preserve">
<style type="text/css">
	.st0{opacity:0.992;fill-rule:evenodd;clip-rule:evenodd;fill:#2E2E2E;enable-background:new    ;}
	.st1{opacity:0.999;fill-rule:evenodd;clip-rule:evenodd;fill:#303030;enable-background:new    ;}
	.st2{opacity:0.995;fill-rule:evenodd;clip-rule:evenodd;fill:#2F2F2F;enable-background:new    ;}
	.st3{fill-rule:evenodd;clip-rule:evenodd;fill:#2D2D2D;}
	.st4{fill-rule:evenodd;clip-rule:evenodd;fill:#D8D7D7;}
</style>
<g>
	<path class="st0" d="M23.48,23.91c-0.3,0-0.52-0.13-0.68-0.39c-0.7-0.95-1.45-1.86-2.24-2.74c-0.71,0.97-1.5,1.89-2.34,2.74
		c-0.52-0.52-1.04-1.04-1.56-1.56c-0.52,0.52-1.04,1.04-1.56,1.56c-0.78-0.91-1.56-1.82-2.34-2.74C11.82,21.9,10.91,23,10,24.11
		c-1.38-4.24-0.08-7.4,3.91-9.48c4.89-1.29,8.17,0.44,9.87,5.18C23.95,21.2,23.85,22.57,23.48,23.91z"/>
</g>
<g>
	<path class="st1" d="M12.15,27.04c-1-0.69-1.72-1.6-2.15-2.74c0.91-0.97,1.82-1.95,2.74-2.93c0.78,0.79,1.5,1.63,2.15,2.54
		C14.04,25.02,13.12,26.06,12.15,27.04z"/>
</g>
<g>
	<path class="st2" d="M23.28,24.3c-0.43,1.13-1.15,2.04-2.15,2.74c-0.91-0.94-1.78-1.92-2.64-2.93c0.08-0.41,0.27-0.81,0.59-1.17
		c0.53-0.5,1.02-1.02,1.46-1.56C21.47,22.35,22.38,23.33,23.28,24.3z"/>
</g>
<g>
	<path class="st3" d="M20.74,27.23c-1.18,0.96-2.55,1.41-4.1,1.37c-1.56,0.04-2.93-0.41-4.1-1.37c1.32-1.66,2.69-3.28,4.1-4.89
		C18.06,23.95,19.43,25.57,20.74,27.23z"/>
</g>
<g>
	<path class="st4" d="M23.48,23.91c0.03,0.2-0.03,0.32-0.2,0.39c-0.91-0.97-1.82-1.95-2.74-2.93c-0.45,0.54-0.93,1.07-1.46,1.56
		c-0.31,0.37-0.51,0.76-0.59,1.17c0.85,1.02,1.73,1.99,2.64,2.93c-0.07,0.16-0.2,0.23-0.39,0.2c-1.32-1.66-2.69-3.28-4.1-4.89
		c-1.42,1.6-2.78,3.23-4.1,4.89c-0.2,0.03-0.32-0.03-0.39-0.2c0.97-0.98,1.89-2.02,2.74-3.13c-0.65-0.91-1.36-1.75-2.15-2.54
		c-0.91,0.98-1.83,1.96-2.73,2.93c0-0.07,0-0.13,0-0.2c0.91-1.1,1.82-2.21,2.74-3.32c0.78,0.92,1.56,1.83,2.34,2.74
		c0.52-0.52,1.04-1.04,1.56-1.56c0.52,0.52,1.04,1.04,1.56,1.56c0.85-0.85,1.63-1.76,2.34-2.74c0.8,0.88,1.54,1.79,2.24,2.74
		C22.95,23.78,23.18,23.91,23.48,23.91z"/>
</g>
<g>
	<path class="st0" d="M14.48,18.35c-0.3,0-0.52-0.13-0.68-0.39c-0.7-0.95-1.45-1.86-2.24-2.74c-0.71,0.97-1.5,1.89-2.34,2.74
		c-0.52-0.52-1.04-1.04-1.56-1.56c-0.52,0.52-1.04,1.04-1.56,1.56c-0.78-0.91-1.56-1.82-2.34-2.74C2.82,16.34,1.91,17.44,1,18.55
		c-1.38-4.24-0.08-7.4,3.91-9.48c4.89-1.29,8.17,0.44,9.87,5.18C14.95,15.64,14.85,17.01,14.48,18.35z"/>
</g>
<g>
	<path class="st1" d="M3.15,21.48c-1-0.69-1.72-1.6-2.15-2.74c0.91-0.97,1.82-1.95,2.74-2.93c0.78,0.79,1.5,1.63,2.15,2.54
		C5.04,19.46,4.12,20.5,3.15,21.48z"/>
</g>
<g>
	<path class="st2" d="M16.28,16.74c-0.43,1.13-1.15,2.04-2.15,2.74c-0.91-0.94-1.78-1.92-2.64-2.93c0.08-0.41,0.27-0.81,0.59-1.17
		c0.53-0.5,1.02-1.02,1.46-1.56C14.47,14.79,15.38,15.77,16.28,16.74z"/>
</g>
<g>
	<path class="st3" d="M11.74,21.67c-1.18,0.96-2.55,1.41-4.1,1.37c-1.56,0.04-2.93-0.41-4.1-1.37c1.32-1.66,2.69-3.28,4.1-4.89
		C9.06,18.39,10.43,20.01,11.74,21.67z"/>
</g>
<g>
	<path class="st4" d="M14.48,18.35c0.03,0.2-0.03,0.32-0.2,0.39c-0.91-0.97-1.82-1.95-2.74-2.93c-0.45,0.54-0.93,1.07-1.46,1.56
		c-0.31,0.37-0.51,0.76-0.59,1.17c0.85,1.02,1.73,1.99,2.64,2.93c-0.07,0.16-0.2,0.23-0.39,0.2c-1.32-1.66-2.69-3.28-4.1-4.89
		c-1.42,1.6-2.78,3.23-4.1,4.89c-0.2,0.03-0.32-0.03-0.39-0.2c0.97-0.98,1.89-2.02,2.74-3.13c-0.65-0.91-1.36-1.75-2.15-2.54
		C2.82,16.79,1.91,17.77,1,18.74c0-0.07,0-0.13,0-0.2c0.91-1.1,1.82-2.21,2.74-3.32c0.78,0.92,1.56,1.83,2.34,2.74
		c0.52-0.52,1.04-1.04,1.56-1.56c0.52,0.52,1.04,1.04,1.56,1.56c0.85-0.85,1.63-1.76,2.34-2.74c0.8,0.88,1.54,1.79,2.24,2.74
		C13.95,18.22,14.18,18.35,14.48,18.35z"/>
</g>
<g>
	<path class="st0" d="M29.48,13.35c-0.3,0-0.52-0.13-0.68-0.39c-0.7-0.95-1.45-1.86-2.24-2.74c-0.71,0.97-1.5,1.89-2.34,2.74
		c-0.52-0.52-1.04-1.04-1.56-1.56c-0.52,0.52-1.04,1.04-1.56,1.56c-0.78-0.91-1.56-1.82-2.34-2.74c-0.92,1.12-1.83,2.22-2.74,3.32
		c-1.38-4.24-0.08-7.4,3.91-9.48c4.89-1.29,8.17,0.44,9.87,5.18C29.95,10.64,29.85,12.01,29.48,13.35z"/>
</g>
<g>
	<path class="st1" d="M18.15,16.48c-1-0.69-1.72-1.6-2.15-2.74c0.91-0.97,1.82-1.95,2.74-2.93c0.78,0.79,1.5,1.63,2.15,2.54
		C20.04,14.46,19.12,15.5,18.15,16.48z"/>
</g>
<g>
	<path class="st2" d="M29.28,13.74c-0.43,1.13-1.15,2.04-2.15,2.74c-0.91-0.94-1.78-1.92-2.64-2.93c0.08-0.41,0.27-0.81,0.59-1.17
		c0.53-0.5,1.02-1.02,1.46-1.56C27.47,11.79,28.38,12.77,29.28,13.74z"/>
</g>
<g>
	<path class="st3" d="M26.74,16.67c-1.18,0.96-2.55,1.41-4.1,1.37c-1.56,0.04-2.93-0.41-4.1-1.37c1.32-1.66,2.69-3.28,4.1-4.89
		C24.06,13.39,25.43,15.01,26.74,16.67z"/>
</g>
<g>
	<path class="st4" d="M29.48,13.35c0.03,0.2-0.03,0.32-0.2,0.39c-0.91-0.97-1.82-1.95-2.74-2.93c-0.45,0.54-0.93,1.07-1.46,1.56
		c-0.31,0.37-0.51,0.76-0.59,1.17c0.85,1.02,1.73,1.99,2.64,2.93c-0.07,0.16-0.2,0.23-0.39,0.2c-1.32-1.66-2.69-3.28-4.1-4.89
		c-1.42,1.6-2.78,3.23-4.1,4.89c-0.2,0.03-0.32-0.03-0.39-0.2c0.97-0.98,1.89-2.02,2.74-3.13c-0.65-0.91-1.36-1.75-2.15-2.54
		c-0.91,0.98-1.83,1.96-2.73,2.93c0-0.07,0-0.13,0-0.2c0.91-1.1,1.82-2.21,2.74-3.32c0.78,0.92,1.56,1.83,2.34,2.74
		c0.52-0.52,1.04-1.04,1.56-1.56c0.52,0.52,1.04,1.04,1.56,1.56c0.85-0.85,1.63-1.76,2.34-2.74c0.8,0.88,1.54,1.79,2.24,2.74
		C28.95,13.22,29.18,13.35,29.48,13.35z"/>
</g>
<g>
	<path class="st0" d="M19.48,10.35c-0.3,0-0.52-0.13-0.68-0.39c-0.7-0.95-1.45-1.86-2.24-2.74c-0.71,0.97-1.5,1.89-2.34,2.74
		c-0.52-0.52-1.04-1.04-1.56-1.56c-0.52,0.52-1.04,1.04-1.56,1.56C10.3,9.05,9.52,8.14,8.74,7.22C7.82,8.34,6.91,9.44,6,10.55
		C4.62,6.3,5.92,3.14,9.91,1.07c4.89-1.29,8.17,0.44,9.87,5.18C19.95,7.64,19.85,9.01,19.48,10.35z"/>
</g>
<g>
	<path class="st1" d="M8.15,13.48c-1-0.69-1.72-1.6-2.15-2.74c0.91-0.97,1.82-1.95,2.74-2.93c0.78,0.79,1.5,1.63,2.15,2.54
		C10.04,11.46,9.12,12.5,8.15,13.48z"/>
</g>
<g>
	<path class="st2" d="M19.28,10.74c-0.43,1.13-1.15,2.04-2.15,2.74c-0.91-0.94-1.78-1.92-2.64-2.93c0.08-0.41,0.27-0.81,0.59-1.17
		c0.53-0.5,1.02-1.02,1.46-1.56C17.47,8.79,18.38,9.77,19.28,10.74z"/>
</g>
<g>
	<path class="st3" d="M16.74,13.67c-1.18,0.96-2.55,1.41-4.1,1.37c-1.56,0.04-2.93-0.41-4.1-1.37c1.32-1.66,2.69-3.28,4.1-4.89
		C14.06,10.39,15.43,12.01,16.74,13.67z"/>
</g>
<g>
	<path class="st4" d="M19.48,10.35c0.03,0.2-0.03,0.32-0.2,0.39c-0.91-0.97-1.82-1.95-2.74-2.93c-0.45,0.54-0.93,1.07-1.46,1.56
		c-0.31,0.37-0.51,0.76-0.59,1.17c0.85,1.02,1.73,1.99,2.64,2.93c-0.07,0.16-0.2,0.23-0.39,0.2c-1.32-1.66-2.69-3.28-4.1-4.89
		c-1.42,1.6-2.78,3.23-4.1,4.89c-0.2,0.03-0.32-0.03-0.39-0.2c0.97-0.98,1.89-2.02,2.74-3.13C10.23,9.44,9.52,8.6,8.73,7.81
		C7.82,8.79,6.91,9.77,6,10.74c0-0.07,0-0.13,0-0.2c0.91-1.1,1.82-2.21,2.74-3.32c0.78,0.92,1.56,1.83,2.34,2.74
		c0.52-0.52,1.04-1.04,1.56-1.56c0.52,0.52,1.04,1.04,1.56,1.56c0.85-0.85,1.63-1.76,2.34-2.74c0.8,0.88,1.54,1.79,2.24,2.74
		C18.95,10.22,19.18,10.35,19.48,10.35z"/>
</g>
</svg>
