<?xml version="1.0" encoding="utf-8"?>
<!-- Generator: Adobe Illustrator 26.4.1, SVG Export Plug-In . SVG Version: 6.00 Build 0)  -->
<svg version="1.1" id="Слой_1" xmlns="http://www.w3.org/2000/svg" xmlns:xlink="http://www.w3.org/1999/xlink" x="0px" y="0px"
	 viewBox="0 0 32 32" style="enable-background:new 0 0 32 32;" xml:space="preserve">
<style type="text/css">
	.st0{opacity:0.992;fill-rule:evenodd;clip-rule:evenodd;fill:#2E2E2E;enable-background:new    ;}
	.st1{opacity:0.999;fill-rule:evenodd;clip-rule:evenodd;fill:#303030;enable-background:new    ;}
	.st2{opacity:0.995;fill-rule:evenodd;clip-rule:evenodd;fill:#2F2F2F;enable-background:new    ;}
	.st3{fill-rule:evenodd;clip-rule:evenodd;fill:#2D2D2D;}
	.st4{fill-rule:evenodd;clip-rule:evenodd;fill:#D8D7D7;}
</style>
<g>
	<path class="st0" d="M30.28,20.98c-0.62,0-1.1-0.28-1.43-0.82c-1.47-1.99-3.04-3.9-4.71-5.74c-1.5,2.04-3.14,3.96-4.92,5.74
		c-1.09-1.09-2.19-2.19-3.28-3.28c-1.09,1.09-2.19,2.19-3.28,3.28c-1.64-1.9-3.27-3.81-4.92-5.74C5.82,16.76,3.9,19.08,2,21.39
		c-2.9-8.9-0.16-15.53,8.2-19.88c10.25-2.7,17.15,0.92,20.7,10.86C31.26,15.3,31.06,18.17,30.28,20.98z"/>
</g>
<g>
	<path class="st1" d="M6.51,27.54C4.42,26.09,2.91,24.18,2,21.8c1.9-2.04,3.82-4.09,5.74-6.15c1.64,1.65,3.15,3.42,4.51,5.33
		C10.47,23.31,8.55,25.5,6.51,27.54z"/>
</g>
<g>
	<path class="st2" d="M29.87,21.8c-0.91,2.38-2.42,4.29-4.51,5.74c-1.9-1.97-3.74-4.02-5.53-6.15c0.16-0.87,0.57-1.69,1.23-2.46
		c1.11-1.04,2.14-2.14,3.07-3.28C26.06,17.71,27.97,19.76,29.87,21.8z"/>
</g>
<g>
	<path class="st3" d="M24.54,27.95c-2.47,2.01-5.34,2.96-8.61,2.87c-3.27,0.09-6.14-0.86-8.61-2.87c2.77-3.48,5.64-6.89,8.61-10.25
		C18.91,21.06,21.78,24.47,24.54,27.95z"/>
</g>
<g>
	<path class="st4" d="M30.28,20.98c0.07,0.41-0.07,0.68-0.41,0.82c-1.9-2.04-3.82-4.09-5.74-6.15c-0.94,1.14-1.96,2.24-3.07,3.28
		c-0.66,0.77-1.07,1.59-1.23,2.46c1.79,2.13,3.63,4.18,5.53,6.15c-0.14,0.34-0.41,0.48-0.82,0.41c-2.77-3.48-5.64-6.89-8.61-10.25
		c-2.97,3.35-5.84,6.77-8.61,10.25c-0.41,0.07-0.68-0.07-0.82-0.41c2.04-2.05,3.96-4.23,5.74-6.56c-1.36-1.91-2.86-3.68-4.51-5.33
		C5.82,17.71,3.9,19.76,2,21.8c0-0.14,0-0.27,0-0.41c1.9-2.31,3.82-4.64,5.74-6.97c1.64,1.93,3.28,3.84,4.92,5.74
		c1.09-1.09,2.19-2.19,3.28-3.28c1.09,1.09,2.19,2.19,3.28,3.28c1.78-1.78,3.42-3.69,4.92-5.74c1.67,1.84,3.24,3.75,4.71,5.74
		C29.18,20.71,29.66,20.98,30.28,20.98z"/>
</g>
</svg>
