<?xml version="1.0" encoding="utf-8"?>
<!-- Generator: Adobe Illustrator 26.4.1, SVG Export Plug-In . SVG Version: 6.00 Build 0)  -->
<svg version="1.1" id="Слой_1" xmlns="http://www.w3.org/2000/svg" xmlns:xlink="http://www.w3.org/1999/xlink" x="0px" y="0px"
	 viewBox="0 0 32 32" style="enable-background:new 0 0 32 32;" xml:space="preserve">
<style type="text/css">
	.st0{fill-rule:evenodd;clip-rule:evenodd;fill:#282828;}
	.st1{fill:none;stroke:#D9D9D9;stroke-miterlimit:10;}
</style>
<g id="Слой_1_00000083047244918676693730000006309753425583728575_">
	<g>
		<path class="st0" d="M8.09,2.67c5.28,0,10.53,0,15.82,0c2.37,4.52,4.9,8.95,7.59,13.29c0,0.22,0,0.41,0,0.63
			c-2.69,4.33-5.22,8.76-7.59,13.29c-5.28,0-10.53,0-15.82,0c-2.37-4.52-4.9-8.95-7.59-13.29c0-0.22,0-0.41,0-0.63
			C3.19,11.65,5.72,7.22,8.09,2.67z M10.62,6.47c3.57-0.06,7.18,0,10.76,0.16c1.58,2.56,3.1,5.16,4.59,7.75
			c0.6,0.76,0.82,1.61,0.63,2.53c-1.71,3.04-3.45,6.04-5.22,9.02c-3.57,0.22-7.18,0.22-10.76,0c-1.58-2.56-3.1-5.16-4.59-7.75
			c-0.6-0.76-0.82-1.61-0.63-2.53C7.14,12.57,8.88,9.53,10.62,6.47z"/>
	</g>
</g>
<g id="Слой_2_00000139259476226712184980000007003157837118090915_">
	<polygon class="st1" points="2.78,16.27 9.45,4.44 22.71,4.44 29.41,16.21 22.8,27.66 9.48,27.66 	"/>
</g>
</svg>
