<?xml version="1.0" encoding="utf-8"?>
<!-- Generator: Adobe Illustrator 26.4.1, SVG Export Plug-In . SVG Version: 6.00 Build 0)  -->
<svg version="1.1" id="Слой_1" xmlns="http://www.w3.org/2000/svg" xmlns:xlink="http://www.w3.org/1999/xlink" x="0px" y="0px"
	 viewBox="0 0 32 32" style="enable-background:new 0 0 32 32;" xml:space="preserve">
<style type="text/css">
	.st0{opacity:4.000000e-03;fill-rule:evenodd;clip-rule:evenodd;fill:#FEFFFE;enable-background:new    ;}
	.st1{opacity:0.99;fill-rule:evenodd;clip-rule:evenodd;fill:#09080A;enable-background:new    ;}
	.st2{fill-rule:evenodd;clip-rule:evenodd;fill:#202021;}
	.st3{opacity:0.993;fill-rule:evenodd;clip-rule:evenodd;fill:#1B1B1C;enable-background:new    ;}
	.st4{opacity:0.994;fill-rule:evenodd;clip-rule:evenodd;fill:#0D0C0E;enable-background:new    ;}
</style>
<g>
	<path class="st0" d="M-0.98,4.54c0.39,0.15,0.45,0.4,0.19,0.76C-0.97,5.07-1.03,4.82-0.98,4.54z"/>
</g>
<g>
	<path class="st1" d="M5.45,5.67c7.07-0.06,14.13,0,21.19,0.19c0.6,0.33,1.23,0.58,1.89,0.76c-0.76,0.76-1.51,1.51-2.27,2.27
		c-6.94,0.25-13.88,0.25-20.82,0C4.82,8.26,4.19,7.63,3.56,7C4.21,6.55,4.84,6.11,5.45,5.67z"/>
</g>
<g>
	<path class="st2" d="M28.54,7.57c1.29,0.35,1.99,1.24,2.08,2.65c0.25,4.04,0.25,8.07,0,12.11c-0.05,1.09-0.49,1.97-1.32,2.65
		c-0.86-0.74-1.61-1.56-2.27-2.46c0.43-3.96,0.49-7.93,0.19-11.92c-0.14-0.35-0.33-0.66-0.57-0.95C27.35,9,27.98,8.31,28.54,7.57z"
		/>
</g>
<g>
	<path class="st3" d="M2.42,7.57c1.18,0.48,2.06,1.3,2.65,2.46c-0.5,4.16-0.5,8.33,0,12.49c-1.57,3.23-2.76,3.17-3.6-0.19
		c-0.25-4.04-0.25-8.07,0-12.11C1.62,9.25,1.94,8.36,2.42,7.57z"/>
</g>
<g>
	<path class="st4" d="M26.27,23.08c0.75,0.75,1.51,1.51,2.27,2.27c-0.48,0.62-1.11,1.06-1.89,1.32c-7.06,0.25-14.13,0.25-21.19,0
		c-0.69-0.28-1.32-0.66-1.89-1.14c0.63-0.63,1.26-1.26,1.89-1.89C12.45,23.59,19.39,23.4,26.27,23.08z"/>
</g>
<g>
	<path class="st0" d="M33.08,23.84C33.58,24.09,33.58,24.09,33.08,23.84z"/>
</g>
<g>
	<path class="st0" d="M32.7,29.52C33.2,29.77,33.2,29.77,32.7,29.52z"/>
</g>
</svg>
