<?xml version="1.0" encoding="utf-8"?>
<!-- Generator: Adobe Illustrator 26.4.1, SVG Export Plug-In . SVG Version: 6.00 Build 0)  -->
<svg version="1.1" id="Слой_1" xmlns="http://www.w3.org/2000/svg" xmlns:xlink="http://www.w3.org/1999/xlink" x="0px" y="0px"
	 viewBox="0 0 32 32" style="enable-background:new 0 0 32 32;" xml:space="preserve">
<style type="text/css">
	.st0{opacity:0.998;fill-rule:evenodd;clip-rule:evenodd;fill:#282828;enable-background:new    ;}
	.st1{fill-rule:evenodd;clip-rule:evenodd;fill:#4C4C4C;stroke:#E0E0E0;stroke-miterlimit:10;}
</style>
<g>
	<path class="st0" d="M16.03,0.71c0.36,0.15,0.71,0.36,1.04,0.59c1.34,2.97,2.76,5.91,4.3,8.76c2.94,0.62,5.91,1.13,8.9,1.48
		c1.42-0.06,1.96,0.59,1.63,1.93c-2.49,2.2-4.93,4.54-7.27,6.98c0.65,3.21,1.25,6.41,1.78,9.65c-0.09,0.62-0.42,1.01-1.04,1.19
		c-3.15-1.42-6.2-3-9.2-4.75c-2.85,1.66-5.79,3.18-8.76,4.6c-1.01,0.36-1.51,0.03-1.48-1.04c0.45-3.09,0.95-6.14,1.48-9.2
		c-0.09-0.3-0.21-0.59-0.3-0.89C4.6,17.72,2.23,15.32,0,12.74c0.3-0.83,0.89-1.22,1.78-1.19c2.97-0.39,5.94-0.83,8.9-1.34
		c1.6-2.91,3.15-5.88,4.6-8.9C15.58,1.13,15.82,0.95,16.03,0.71z"/>
</g>
<circle class="st1" cx="16.21" cy="17.34" r="7.75"/>
<polygon class="st1" points="18.14,20.57 14.37,20.63 12.44,17.42 14.25,14.13 18.02,14.07 19.95,17.28 "/>
</svg>
