<?xml version="1.0" encoding="utf-8"?>
<!-- Generator: Adobe Illustrator 26.4.1, SVG Export Plug-In . SVG Version: 6.00 Build 0)  -->
<svg version="1.1" id="Слой_1" xmlns="http://www.w3.org/2000/svg" xmlns:xlink="http://www.w3.org/1999/xlink" x="0px" y="0px"
	 viewBox="0 0 32 32" style="enable-background:new 0 0 32 32;" xml:space="preserve">
<style type="text/css">
	.st0{opacity:0.994;fill-rule:evenodd;clip-rule:evenodd;fill:#282828;enable-background:new    ;}
	.st1{opacity:4.000000e-03;fill-rule:evenodd;clip-rule:evenodd;fill:#FEFFFE;enable-background:new    ;}
	.st2{opacity:6.000000e-03;fill-rule:evenodd;clip-rule:evenodd;fill:#FEFFFE;enable-background:new    ;}
	.st3{opacity:8.000000e-03;fill-rule:evenodd;clip-rule:evenodd;fill:#FEFFFE;enable-background:new    ;}
	.st4{opacity:9.000000e-03;fill-rule:evenodd;clip-rule:evenodd;fill:#FEFFFE;enable-background:new    ;}
	.st5{opacity:0.32;fill-rule:evenodd;clip-rule:evenodd;fill:#FEFFFE;enable-background:new    ;}
	.st6{fill:none;stroke:#C7C7C7;stroke-miterlimit:10;}
	.st7{opacity:0.043;fill-rule:evenodd;clip-rule:evenodd;fill:#FEFFFE;enable-background:new    ;}
</style>
<g>
	<path class="st0" d="M31.3,23.71c-8.17,0-16.24,0-24.25,0c8.07,0.31,16.18,0.4,24.25,0.31c-0.34,0.8-0.83,1.44-1.54,2
		c-9.12,0.21-18.21,0.21-27.32,0c-0.61-0.61-1.23-1.23-1.84-1.84c4.76-7.71,9.46-15.41,14.12-23.18c1.35-0.52,2.52-0.31,3.53,0.61
		C22.7,8.94,27.03,16.31,31.3,23.71z M23.93,20.95c-5,0.4-10.04,0.4-15.04,0c2.33-4.11,4.73-8.23,7.21-12.28
		C18.81,12.72,21.42,16.8,23.93,20.95z"/>
</g>
<g>
	<path class="st1" d="M24.85,2.53C25.25,2.74,25.25,2.74,24.85,2.53z"/>
</g>
<g>
	<path class="st1" d="M26.7,2.83C27.09,3.05,27.09,3.05,26.7,2.83z"/>
</g>
<g>
	<path class="st1" d="M26.7,4.06C27.09,4.28,27.09,4.28,26.7,4.06z"/>
</g>
<g>
	<path class="st1" d="M26.7,6.21C27.09,6.43,27.09,6.43,26.7,6.21z"/>
</g>
<g>
	<path class="st2" d="M28.54,9.28c0.31,0.12,0.37,0.34,0.15,0.61C28.54,9.71,28.51,9.5,28.54,9.28z"/>
</g>
<g>
	<path class="st1" d="M28.54,10.51C28.32,10.11,28.32,10.11,28.54,10.51z"/>
</g>
<g>
	<path class="st3" d="M28.54,10.51c0.31,0.12,0.37,0.34,0.15,0.61C28.54,10.94,28.51,10.72,28.54,10.51z"/>
</g>
<g>
	<path class="st4" d="M28.54,11.43c0.25,0.09,0.46,0.25,0.61,0.46C28.75,12.04,28.54,11.89,28.54,11.43z"/>
</g>
<g>
	<path class="st1" d="M29.77,13.89C30.16,14.1,30.16,14.1,29.77,13.89z"/>
</g>
<g>
	<path class="st5" d="M8.89,20.95c5,0.4,10.04,0.4,15.04,0c1.17,0.28,2.3,0.4,3.38,0.31c-6.23,0.4-12.5,0.4-18.73,0
		C8.61,21.07,8.74,20.98,8.89,20.95z"/>
</g>
<polygon class="st6" points="3.49,23.71 15.95,3.23 28.84,23.71 3.7,23.71 "/>
<g>
	<path class="st7" d="M31.3,23.71c0.4,0.09,0.4,0.21,0,0.31c-8.07,0.09-16.18,0-24.25-0.31C15.06,23.71,23.13,23.71,31.3,23.71z"/>
</g>
</svg>
