<?xml version="1.0" encoding="UTF-8" standalone="no"?>
<!DOCTYPE svg PUBLIC "-//W3C//DTD SVG 1.1//EN" "http://www.w3.org/Graphics/SVG/1.1/DTD/svg11.dtd">
<svg xmlns="http://www.w3.org/2000/svg" version="1.1" viewBox="0 0 64 141">
<g stroke-width="2.0" fill="none" stroke-linecap="butt">
<path stroke="#575757" vector-effect="non-scaling-stroke" d="
  M 41.67 14.94
  L 41.79 33.94
  C 41.79 34.48 42.35 34.85 42.84 34.63
  L 58.28 27.83
  C 58.73 27.63 59.02 27.15 59.01 26.62
  L 58.81 6.98
  C 58.81 6.71 58.53 6.53 58.29 6.64
  L 42.13 14.21
  C 41.85 14.34 41.67 14.63 41.67 14.94"
/>
<path stroke="#3d3d3d" vector-effect="non-scaling-stroke" d="
  M 6.41 7.30
  C 6.01 7.13 5.56 7.40 5.56 7.81
  L 5.48 27.50
  C 5.48 27.80 5.67 28.07 5.96 28.20
  L 21.08 34.70
  C 21.74 34.98 22.47 34.52 22.51 33.81
  Q 23.06 24.34 22.59 14.69
  C 22.58 14.40 22.39 14.13 22.10 14.01
  L 6.41 7.30"
/>
<path stroke="#3d3d3d" vector-effect="non-scaling-stroke" d="
  M 48.25 55.46
  L 55.13 55.49
  C 55.68 55.49 56.06 54.93 55.85 54.41
  Q 50.93 41.74 38.81 38.19
  Q 35.98 37.36 34.50 37.79"
/>
<path stroke="#4a4a4a" vector-effect="non-scaling-stroke" d="
  M 34.50 37.79
  Q 32.22 36.91 29.76 37.29
  Q 13.93 39.72 8.35 54.46
  C 8.16 54.96 8.53 55.50 9.07 55.50
  L 48.25 55.46"
/>
<path stroke="#595959" vector-effect="non-scaling-stroke" d="
  M 34.50 37.79
  Q 44.58 44.13 48.25 55.46"
/>
<path stroke="#4a4a4a" vector-effect="non-scaling-stroke" d="
  M 49.25 112.71
  L 56.43 112.83
  C 56.74 112.84 56.99 112.59 57.00 112.29
  Q 57.62 86.37 57.01 60.50
  C 57.00 60.23 56.78 60.02 56.50 60.01
  L 49.21 59.84
  C 49.03 59.83 48.85 59.98 48.76 60.21
  Q 48.69 60.41 48.50 60.54"
/>
<path stroke="#575757" vector-effect="non-scaling-stroke" d="
  M 48.50 60.54
  Q 47.81 59.99 46.00 60.00
  Q 26.90 60.12 8.68 59.83
  C 7.76 59.81 7.00 60.56 7.00 61.48
  L 7.00 111.28
  C 7.00 112.06 7.63 112.70 8.41 112.70
  L 49.25 112.71"
/>
<path stroke="#747474" vector-effect="non-scaling-stroke" d="
  M 48.50 60.54
  Q 49.05 61.72 49.00 64.25
  Q 48.68 81.05 49.25 112.71"
/>
<path stroke="#4a4a4a" vector-effect="non-scaling-stroke" d="
  M 47.00 117.54
  L 8.89 117.50
  C 8.50 117.50 8.24 117.90 8.40 118.26
  Q 14.19 131.66 28.25 134.50
  Q 31.65 135.19 35.25 133.96"
/>
<path stroke="#3d3d3d" vector-effect="non-scaling-stroke" d="
  M 35.25 133.96
  Q 39.24 134.28 43.81 131.81
  Q 52.09 127.33 55.63 118.38
  C 55.79 117.98 55.51 117.54 55.09 117.54
  L 47.00 117.54"
/>
<path stroke="#595959" vector-effect="non-scaling-stroke" d="
  M 35.25 133.96
  Q 43.95 127.83 47.69 118.44
  Q 47.99 117.67 47.00 117.54"
/>
<path stroke="#575757" vector-effect="non-scaling-stroke" d="
  M 43.74 85.56
  Q 45.26 82.77 46.74 79.95
  Q 47.74 78.05 47.57 76.87
  Q 47.23 74.54 43.80 75.27
  Q 40.95 75.88 37.29 76.43
  C 36.62 76.53 35.95 76.27 35.53 75.74
  Q 33.70 73.47 31.90 71.73
  Q 31.79 71.63 30.81 70.57
  Q 29.20 68.81 27.66 70.25
  Q 26.86 71.01 26.61 72.66
  Q 26.16 75.70 25.65 79.21
  C 25.57 79.77 25.22 80.26 24.71 80.52
  Q 21.67 82.06 19.05 83.29
  Q 14.11 85.59 18.85 88.32
  Q 21.87 90.05 24.99 91.59
  C 25.27 91.73 25.47 92.00 25.51 92.31
  Q 25.99 95.57 26.52 98.82
  Q 26.82 100.71 27.50 101.50
  Q 28.90 103.14 31.04 101.04
  Q 33.76 98.37 36.45 95.67
  C 36.67 95.45 37.00 95.37 37.30 95.44
  Q 40.86 96.31 44.51 96.68
  Q 48.70 97.11 47.19 93.06
  Q 46.75 91.90 43.74 86.44
  C 43.59 86.17 43.59 85.83 43.74 85.56"
/>
<path stroke="#964026" vector-effect="non-scaling-stroke" d="
  M 29.55 89.30
  L 30.36 93.36
  Q 30.89 96.05 32.18 93.70
  Q 34.38 89.71 38.52 91.22
  Q 39.30 91.51 39.64 91.54
  Q 40.88 91.67 40.66 90.67
  Q 40.58 90.32 40.06 89.54
  Q 37.68 85.96 40.50 82.00
  Q 41.75 80.25 39.92 80.46
  Q 39.57 80.50 38.72 80.79
  Q 34.65 82.21 32.26 78.27
  Q 31.15 76.44 30.38 78.44
  Q 29.91 79.64 29.72 81.93
  C 29.69 82.27 29.56 82.58 29.33 82.80
  Q 27.41 84.66 24.81 85.56
  Q 23.43 86.04 25.00 86.75
  L 29.01 88.55
  C 29.28 88.67 29.48 88.95 29.55 89.30"
/>
</g>
<path fill="#2d2d2d" d="
  M 49.54 36.23
  Q 47.34 37.20 49.18 38.55
  Q 57.22 44.50 60.03 53.32
  Q 61.50 57.95 61.50 70.83
  Q 61.50 89.79 61.50 108.75
  Q 61.50 129.50 41.81 137.31
  Q 39.54 138.21 34.97 138.71
  Q 31.27 139.10 28.05 138.56
  Q 9.82 135.46 3.75 117.25
  Q 2.52 113.55 2.62 106.56
  Q 2.73 99.60 2.72 99.43
  Q 2.62 81.75 2.90 64.08
  Q 3.01 56.64 4.47 52.60
  Q 7.54 44.07 15.26 38.49
  Q 16.93 37.29 15.04 36.46
  L 2.28 30.93
  C 1.54 30.61 1.06 29.87 1.07 29.05
  L 1.31 3.09
  Q 1.34 -0.09 4.15 1.21
  L 26.13 11.35
  C 26.62 11.58 26.93 12.08 26.94 12.65
  Q 27.04 21.54 27.00 30.97
  Q 27.00 32.28 27.40 32.94
  Q 28.24 34.33 29.74 32.69
  C 29.95 32.46 30.07 32.14 30.07 31.81
  L 30.31 4.56
  C 30.32 4.22 30.43 3.91 30.63 3.68
  Q 32.45 1.66 33.67 3.69
  Q 34.19 4.55 34.19 6.06
  Q 34.25 19.38 34.31 32.69
  C 34.31 33.00 34.50 33.27 34.78 33.35
  Q 35.97 33.66 37.03 32.99
  C 37.27 32.83 37.42 32.53 37.42 32.19
  L 37.30 12.88
  C 37.29 12.17 37.71 11.53 38.37 11.23
  L 60.30 1.27
  Q 62.93 0.07 62.97 2.96
  L 63.26 28.78
  C 63.27 29.62 62.80 30.37 62.08 30.69
  L 49.54 36.23
  Z
  M 41.67 14.94
  L 41.79 33.94
  C 41.79 34.48 42.35 34.85 42.84 34.63
  L 58.28 27.83
  C 58.73 27.63 59.02 27.15 59.01 26.62
  L 58.81 6.98
  C 58.81 6.71 58.53 6.53 58.29 6.64
  L 42.13 14.21
  C 41.85 14.34 41.67 14.63 41.67 14.94
  Z
  M 6.41 7.30
  C 6.01 7.13 5.56 7.40 5.56 7.81
  L 5.48 27.50
  C 5.48 27.80 5.67 28.07 5.96 28.20
  L 21.08 34.70
  C 21.74 34.98 22.47 34.52 22.51 33.81
  Q 23.06 24.34 22.59 14.69
  C 22.58 14.40 22.39 14.13 22.10 14.01
  L 6.41 7.30
  Z
  M 48.25 55.46
  L 55.13 55.49
  C 55.68 55.49 56.06 54.93 55.85 54.41
  Q 50.93 41.74 38.81 38.19
  Q 35.98 37.36 34.50 37.79
  Q 32.22 36.91 29.76 37.29
  Q 13.93 39.72 8.35 54.46
  C 8.16 54.96 8.53 55.50 9.07 55.50
  L 48.25 55.46
  Z
  M 49.25 112.71
  L 56.43 112.83
  C 56.74 112.84 56.99 112.59 57.00 112.29
  Q 57.62 86.37 57.01 60.50
  C 57.00 60.23 56.78 60.02 56.50 60.01
  L 49.21 59.84
  C 49.03 59.83 48.85 59.98 48.76 60.21
  Q 48.69 60.41 48.50 60.54
  Q 47.81 59.99 46.00 60.00
  Q 26.90 60.12 8.68 59.83
  C 7.76 59.81 7.00 60.56 7.00 61.48
  L 7.00 111.28
  C 7.00 112.06 7.63 112.70 8.41 112.70
  L 49.25 112.71
  Z
  M 47.00 117.54
  L 8.89 117.50
  C 8.50 117.50 8.24 117.90 8.40 118.26
  Q 14.19 131.66 28.25 134.50
  Q 31.65 135.19 35.25 133.96
  Q 39.24 134.28 43.81 131.81
  Q 52.09 127.33 55.63 118.38
  C 55.79 117.98 55.51 117.54 55.09 117.54
  L 47.00 117.54
  Z"
/>
<path fill="#818181" d="
  M 42.13 14.21
  L 58.29 6.64
  C 58.53 6.53 58.81 6.71 58.81 6.98
  L 59.01 26.62
  C 59.02 27.15 58.73 27.63 58.28 27.83
  L 42.84 34.63
  C 42.35 34.85 41.79 34.48 41.79 33.94
  L 41.67 14.94
  C 41.67 14.63 41.85 14.34 42.13 14.21
  Z"
/>
<path fill="#4c4c4c" d="
  M 6.41 7.30
  L 22.10 14.01
  C 22.39 14.13 22.58 14.40 22.59 14.69
  Q 23.06 24.34 22.51 33.81
  C 22.47 34.52 21.74 34.98 21.08 34.70
  L 5.96 28.20
  C 5.67 28.07 5.48 27.80 5.48 27.50
  L 5.56 7.81
  C 5.56 7.40 6.01 7.13 6.41 7.30
  Z"
/>
<path fill="#666666" d="
  M 34.50 37.79
  Q 44.58 44.13 48.25 55.46
  L 9.07 55.50
  C 8.53 55.50 8.16 54.96 8.35 54.46
  Q 13.93 39.72 29.76 37.29
  Q 32.22 36.91 34.50 37.79
  Z"
/>
<path fill="#4c4c4c" d="
  M 48.25 55.46
  Q 44.58 44.13 34.50 37.79
  Q 35.98 37.36 38.81 38.19
  Q 50.93 41.74 55.85 54.41
  C 56.06 54.93 55.68 55.49 55.13 55.49
  L 48.25 55.46
  Z"
/>
<path fill="#818181" d="
  M 48.50 60.54
  Q 49.05 61.72 49.00 64.25
  Q 48.68 81.05 49.25 112.71
  L 8.41 112.70
  C 7.63 112.70 7.00 112.06 7.00 111.28
  L 7.00 61.48
  C 7.00 60.56 7.76 59.81 8.68 59.83
  Q 26.90 60.12 46.00 60.00
  Q 47.81 59.99 48.50 60.54
  Z
  M 43.74 85.56
  Q 45.26 82.77 46.74 79.95
  Q 47.74 78.05 47.57 76.87
  Q 47.23 74.54 43.80 75.27
  Q 40.95 75.88 37.29 76.43
  C 36.62 76.53 35.95 76.27 35.53 75.74
  Q 33.70 73.47 31.90 71.73
  Q 31.79 71.63 30.81 70.57
  Q 29.20 68.81 27.66 70.25
  Q 26.86 71.01 26.61 72.66
  Q 26.16 75.70 25.65 79.21
  C 25.57 79.77 25.22 80.26 24.71 80.52
  Q 21.67 82.06 19.05 83.29
  Q 14.11 85.59 18.85 88.32
  Q 21.87 90.05 24.99 91.59
  C 25.27 91.73 25.47 92.00 25.51 92.31
  Q 25.99 95.57 26.52 98.82
  Q 26.82 100.71 27.50 101.50
  Q 28.90 103.14 31.04 101.04
  Q 33.76 98.37 36.45 95.67
  C 36.67 95.45 37.00 95.37 37.30 95.44
  Q 40.86 96.31 44.51 96.68
  Q 48.70 97.11 47.19 93.06
  Q 46.75 91.90 43.74 86.44
  C 43.59 86.17 43.59 85.83 43.74 85.56
  Z"
/>
<path fill="#666666" d="
  M 49.25 112.71
  Q 48.68 81.05 49.00 64.25
  Q 49.05 61.72 48.50 60.54
  Q 48.69 60.41 48.76 60.21
  C 48.85 59.98 49.03 59.83 49.21 59.84
  L 56.50 60.01
  C 56.78 60.02 57.00 60.23 57.01 60.50
  Q 57.62 86.37 57.00 112.29
  C 56.99 112.59 56.74 112.84 56.43 112.83
  L 49.25 112.71
  Z"
/>
<path fill="#2d2d2d" d="
  M 43.74 86.44
  Q 46.75 91.90 47.19 93.06
  Q 48.70 97.11 44.51 96.68
  Q 40.86 96.31 37.30 95.44
  C 37.00 95.37 36.67 95.45 36.45 95.67
  Q 33.76 98.37 31.04 101.04
  Q 28.90 103.14 27.50 101.50
  Q 26.82 100.71 26.52 98.82
  Q 25.99 95.57 25.51 92.31
  C 25.47 92.00 25.27 91.73 24.99 91.59
  Q 21.87 90.05 18.85 88.32
  Q 14.11 85.59 19.05 83.29
  Q 21.67 82.06 24.71 80.52
  C 25.22 80.26 25.57 79.77 25.65 79.21
  Q 26.16 75.70 26.61 72.66
  Q 26.86 71.01 27.66 70.25
  Q 29.20 68.81 30.81 70.57
  Q 31.79 71.63 31.90 71.73
  Q 33.70 73.47 35.53 75.74
  C 35.95 76.27 36.62 76.53 37.29 76.43
  Q 40.95 75.88 43.80 75.27
  Q 47.23 74.54 47.57 76.87
  Q 47.74 78.05 46.74 79.95
  Q 45.26 82.77 43.74 85.56
  C 43.59 85.83 43.59 86.17 43.74 86.44
  Z
  M 29.55 89.30
  L 30.36 93.36
  Q 30.89 96.05 32.18 93.70
  Q 34.38 89.71 38.52 91.22
  Q 39.30 91.51 39.64 91.54
  Q 40.88 91.67 40.66 90.67
  Q 40.58 90.32 40.06 89.54
  Q 37.68 85.96 40.50 82.00
  Q 41.75 80.25 39.92 80.46
  Q 39.57 80.50 38.72 80.79
  Q 34.65 82.21 32.26 78.27
  Q 31.15 76.44 30.38 78.44
  Q 29.91 79.64 29.72 81.93
  C 29.69 82.27 29.56 82.58 29.33 82.80
  Q 27.41 84.66 24.81 85.56
  Q 23.43 86.04 25.00 86.75
  L 29.01 88.55
  C 29.28 88.67 29.48 88.95 29.55 89.30
  Z"
/>
<path fill="#ff531f" d="
  M 29.01 88.55
  L 25.00 86.75
  Q 23.43 86.04 24.81 85.56
  Q 27.41 84.66 29.33 82.80
  C 29.56 82.58 29.69 82.27 29.72 81.93
  Q 29.91 79.64 30.38 78.44
  Q 31.15 76.44 32.26 78.27
  Q 34.65 82.21 38.72 80.79
  Q 39.57 80.50 39.92 80.46
  Q 41.75 80.25 40.50 82.00
  Q 37.68 85.96 40.06 89.54
  Q 40.58 90.32 40.66 90.67
  Q 40.88 91.67 39.64 91.54
  Q 39.30 91.51 38.52 91.22
  Q 34.38 89.71 32.18 93.70
  Q 30.89 96.05 30.36 93.36
  L 29.55 89.30
  C 29.48 88.95 29.28 88.67 29.01 88.55
  Z"
/>
<path fill="#4c4c4c" d="
  M 35.25 133.96
  Q 43.95 127.83 47.69 118.44
  Q 47.99 117.67 47.00 117.54
  L 55.09 117.54
  C 55.51 117.54 55.79 117.98 55.63 118.38
  Q 52.09 127.33 43.81 131.81
  Q 39.24 134.28 35.25 133.96
  Z"
/>
<path fill="#666666" d="
  M 47.00 117.54
  Q 47.99 117.67 47.69 118.44
  Q 43.95 127.83 35.25 133.96
  Q 31.65 135.19 28.25 134.50
  Q 14.19 131.66 8.40 118.26
  C 8.24 117.90 8.50 117.50 8.89 117.50
  L 47.00 117.54
  Z"
/>
</svg>
