<?xml version="1.0" encoding="UTF-8"?>
<!DOCTYPE svg PUBLIC "-//W3C//DTD SVG 1.1//EN" "http://www.w3.org/Graphics/SVG/1.1/DTD/svg11.dtd">
<svg xmlns="http://www.w3.org/2000/svg" version="1.1" width="120px" height="120px" style="shape-rendering:geometricPrecision; text-rendering:geometricPrecision; image-rendering:optimizeQuality; fill-rule:evenodd; clip-rule:evenodd" xmlns:xlink="http://www.w3.org/1999/xlink">
<g><path style="opacity:0.992" fill="#2e2e2e" d="M 94.5,72.5 C 92.9826,72.4894 91.8159,71.8228 91,70.5C 87.4057,65.6494 83.5723,60.9827 79.5,56.5C 75.8451,61.4863 71.8451,66.153 67.5,70.5C 64.8333,67.8333 62.1667,65.1667 59.5,62.5C 56.8333,65.1667 54.1667,67.8333 51.5,70.5C 47.5101,65.8736 43.5101,61.2069 39.5,56.5C 34.8101,62.1858 30.1435,67.8525 25.5,73.5C 18.4352,51.7836 25.1019,35.617 45.5,25C 70.5036,18.4173 87.337,27.2507 96,51.5C 96.8917,58.6258 96.3917,65.6258 94.5,72.5 Z"/></g>
<g><path style="opacity:0.999" fill="#303030" d="M 36.5,88.5 C 31.3974,84.9615 27.7307,80.2948 25.5,74.5C 30.1449,69.5203 34.8116,64.5203 39.5,59.5C 43.5126,63.5149 47.1793,67.8482 50.5,72.5C 46.1545,78.1746 41.4878,83.5079 36.5,88.5 Z"/></g>
<g><path style="opacity:0.995" fill="#2f2f2f" d="M 93.5,74.5 C 91.2693,80.2948 87.6026,84.9615 82.5,88.5C 77.8656,83.6949 73.3656,78.6949 69,73.5C 69.3983,71.3687 70.3983,69.3687 72,67.5C 74.7112,64.9579 77.2112,62.2912 79.5,59.5C 84.1884,64.5203 88.8551,69.5203 93.5,74.5 Z"/></g>
<g><path style="opacity:1" fill="#2d2d2d" d="M 80.5,89.5 C 74.4737,94.3978 67.4737,96.7311 59.5,96.5C 51.5263,96.7311 44.5263,94.3978 38.5,89.5C 45.2542,81.0125 52.2542,72.6792 59.5,64.5C 66.7458,72.6792 73.7458,81.0125 80.5,89.5 Z"/></g>
<g><path style="opacity:1" fill="#d8d7d7" d="M 94.5,72.5 C 94.6716,73.4916 94.3382,74.1583 93.5,74.5C 88.8551,69.5203 84.1884,64.5203 79.5,59.5C 77.2112,62.2912 74.7112,64.9579 72,67.5C 70.3983,69.3687 69.3983,71.3687 69,73.5C 73.3656,78.6949 77.8656,83.6949 82.5,88.5C 82.1583,89.3382 81.4916,89.6716 80.5,89.5C 73.7458,81.0125 66.7458,72.6792 59.5,64.5C 52.2542,72.6792 45.2542,81.0125 38.5,89.5C 37.5084,89.6716 36.8417,89.3382 36.5,88.5C 41.4878,83.5079 46.1545,78.1746 50.5,72.5C 47.1793,67.8482 43.5126,63.5149 39.5,59.5C 34.8116,64.5203 30.1449,69.5203 25.5,74.5C 25.5,74.1667 25.5,73.8333 25.5,73.5C 30.1435,67.8525 34.8101,62.1858 39.5,56.5C 43.5101,61.2069 47.5101,65.8736 51.5,70.5C 54.1667,67.8333 56.8333,65.1667 59.5,62.5C 62.1667,65.1667 64.8333,67.8333 67.5,70.5C 71.8451,66.153 75.8451,61.4863 79.5,56.5C 83.5723,60.9827 87.4057,65.6494 91,70.5C 91.8159,71.8228 92.9826,72.4894 94.5,72.5 Z"/></g>
</svg>
