<?xml version="1.0" encoding="UTF-8"?>
<!DOCTYPE svg PUBLIC "-//W3C//DTD SVG 1.1//EN" "http://www.w3.org/Graphics/SVG/1.1/DTD/svg11.dtd">
<svg xmlns="http://www.w3.org/2000/svg" version="1.1" width="98px" height="86px" style="shape-rendering:geometricPrecision; text-rendering:geometricPrecision; image-rendering:optimizeQuality; fill-rule:evenodd; clip-rule:evenodd" xmlns:xlink="http://www.w3.org/1999/xlink">
<g><path style="opacity:1" fill="#040404" d="M 23.5,-0.5 C 40.1667,-0.5 56.8333,-0.5 73.5,-0.5C 80.9976,13.8335 88.9976,27.8335 97.5,41.5C 97.5,42.1667 97.5,42.8333 97.5,43.5C 88.9976,57.1665 80.9976,71.1665 73.5,85.5C 56.8333,85.5 40.1667,85.5 23.5,85.5C 16.0024,71.1665 8.0024,57.1665 -0.5,43.5C -0.5,42.8333 -0.5,42.1667 -0.5,41.5C 8.0024,27.8335 16.0024,13.8335 23.5,-0.5 Z M 31.5,11.5 C 42.8382,11.3335 54.1716,11.5001 65.5,12C 70.4593,20.0842 75.2926,28.2509 80,36.5C 81.8849,38.9141 82.5516,41.5808 82,44.5C 76.6263,54.0818 71.1263,63.5818 65.5,73C 54.1667,73.6667 42.8333,73.6667 31.5,73C 26.5407,64.9158 21.7074,56.7491 17,48.5C 15.1151,46.0859 14.4484,43.4192 15,40.5C 20.5119,30.806 26.0119,21.1393 31.5,11.5 Z"/></g>
</svg>
