<?xml version="1.0" encoding="UTF-8"?>
<!DOCTYPE svg PUBLIC "-//W3C//DTD SVG 1.1//EN" "http://www.w3.org/Graphics/SVG/1.1/DTD/svg11.dtd">
<svg xmlns="http://www.w3.org/2000/svg" version="1.1" width="126px" height="86px" style="shape-rendering:geometricPrecision; text-rendering:geometricPrecision; image-rendering:optimizeQuality; fill-rule:evenodd; clip-rule:evenodd" xmlns:xlink="http://www.w3.org/1999/xlink">
<g><path style="opacity:0.004" fill="#fefffe" d="M 17.5,11.5 C 18.525,11.8966 18.6917,12.5632 18,13.5C 17.5357,12.9056 17.369,12.2389 17.5,11.5 Z"/></g>
<g><path style="opacity:0.004" fill="#fefffe" d="M 5.5,12.5 C 6.83333,13.1667 6.83333,13.1667 5.5,12.5 Z"/></g>
<g><path style="opacity:0.004" fill="#fefffe" d="M 2.5,15.5 C 3.83333,16.1667 3.83333,16.1667 2.5,15.5 Z"/></g>
<g><path style="opacity:0.99" fill="#09080a" d="M 34.5,14.5 C 53.1696,14.3334 71.8363,14.5001 90.5,15C 92.087,15.8624 93.7536,16.5291 95.5,17C 93.5,19 91.5,21 89.5,23C 71.1667,23.6667 52.8333,23.6667 34.5,23C 32.8333,21.3333 31.1667,19.6667 29.5,18C 31.2331,16.8111 32.8998,15.6444 34.5,14.5 Z"/></g>
<g><path style="opacity:0.004" fill="#fefffe" d="M 110.5,17.5 C 111.525,17.8966 111.692,18.5632 111,19.5C 110.536,18.9056 110.369,18.2389 110.5,17.5 Z"/></g>
<g><path style="opacity:0.004" fill="#fefffe" d="M 112.5,17.5 C 113.833,18.1667 113.833,18.1667 112.5,17.5 Z"/></g>
<g><path style="opacity:1" fill="#202021" d="M 95.5,19.5 C 98.9193,20.4346 100.753,22.7679 101,26.5C 101.667,37.1667 101.667,47.8333 101,58.5C 100.869,61.3712 99.7025,63.7046 97.5,65.5C 95.2387,63.5446 93.2387,61.378 91.5,59C 92.6319,48.5345 92.7985,38.0345 92,27.5C 91.6258,26.5838 91.1258,25.7504 90.5,25C 92.3734,23.2962 94.0401,21.4628 95.5,19.5 Z"/></g>
<g><path style="opacity:0.993" fill="#1b1b1c" d="M 26.5,19.5 C 29.6081,20.7727 31.9414,22.9394 33.5,26C 32.1667,37 32.1667,48 33.5,59C 29.3645,67.5451 26.1978,67.3784 24,58.5C 23.3333,47.8333 23.3333,37.1667 24,26.5C 24.3838,23.9398 25.2171,21.6064 26.5,19.5 Z"/></g>
<g><path style="opacity:0.004" fill="#fefffe" d="M 121.5,59.5 C 122.833,60.1667 122.833,60.1667 121.5,59.5 Z"/></g>
<g><path style="opacity:0.994" fill="#0d0c0e" d="M 89.5,60.5 C 91.479,62.479 93.479,64.479 95.5,66.5C 94.2214,68.1461 92.5547,69.3128 90.5,70C 71.8333,70.6667 53.1667,70.6667 34.5,70C 32.6675,69.2515 31.0009,68.2515 29.5,67C 31.1667,65.3333 32.8333,63.6667 34.5,62C 53.0046,61.8317 71.3379,61.3317 89.5,60.5 Z"/></g>
<g><path style="opacity:0.004" fill="#fefffe" d="M 107.5,62.5 C 108.833,63.1667 108.833,63.1667 107.5,62.5 Z"/></g>
<g><path style="opacity:0.004" fill="#fefffe" d="M 119.5,62.5 C 120.833,63.1667 120.833,63.1667 119.5,62.5 Z"/></g>
<g><path style="opacity:0.004" fill="#fefffe" d="M 121.5,65.5 C 122.833,66.1667 122.833,66.1667 121.5,65.5 Z"/></g>
<g><path style="opacity:0.004" fill="#fefffe" d="M 106.5,77.5 C 107.833,78.1667 107.833,78.1667 106.5,77.5 Z"/></g>
<g><path style="opacity:0.004" fill="#fefffe" d="M 110.5,77.5 C 111.833,78.1667 111.833,78.1667 110.5,77.5 Z"/></g>
<g><path style="opacity:0.004" fill="#fefffe" d="M 121.5,78.5 C 122.833,79.1667 122.833,79.1667 121.5,78.5 Z"/></g>
<g><path style="opacity:0.004" fill="#fefffe" d="M 91.5,80.5 C 92.7124,81.2299 93.7124,82.2299 94.5,83.5C 95.7112,82.7261 95.7112,81.8928 94.5,81C 96.108,80.342 97.2747,80.842 98,82.5C 101.168,79.7215 104.001,80.0548 106.5,83.5C 107.711,82.7261 107.711,81.8928 106.5,81C 108.18,80.9657 109.68,80.799 111,80.5C 111.781,81.9437 111.614,83.277 110.5,84.5C 109.808,83.9747 109.308,83.3081 109,82.5C 105.26,83.7939 101.26,84.4605 97,84.5C 93.1667,84.3333 89.3333,84.1667 85.5,84C 88.2644,83.9942 90.2644,82.8275 91.5,80.5 Z M 99.5,81.5 C 101.337,81.6395 101.67,82.3061 100.5,83.5C 99.7025,83.0431 99.3691,82.3764 99.5,81.5 Z"/></g>
<g><path style="opacity:0.004" fill="#fefffe" d="M 112.5,81.5 C 112.897,80.475 113.563,80.3083 114.5,81C 113.906,81.4643 113.239,81.631 112.5,81.5 Z"/></g>
<g><path style="opacity:0.004" fill="#fefffe" d="M 119.5,80.5 C 120.186,81.8484 121.186,83.015 122.5,84C 117.737,84.6218 116.737,84.4551 119.5,83.5C 119.5,82.5 119.5,81.5 119.5,80.5 Z"/></g>
<g><path style="opacity:0.004" fill="#fefffe" d="M 86.5,81.5 C 87.8333,82.1667 87.8333,82.1667 86.5,81.5 Z"/></g>
<g><path style="opacity:0.004" fill="#fefffe" d="M 112.5,82.5 C 114.337,82.6395 114.67,83.3061 113.5,84.5C 112.702,84.0431 112.369,83.3764 112.5,82.5 Z"/></g>
<g><path style="opacity:0.004" fill="#fefffe" d="M 65.5,83.5 C 66.8333,84.1667 66.8333,84.1667 65.5,83.5 Z"/></g>
<g><path style="opacity:0.004" fill="#fefffe" d="M 69.5,84.5 C 69.8966,83.475 70.5632,83.3083 71.5,84C 70.9056,84.4643 70.2389,84.631 69.5,84.5 Z"/></g>
<g><path style="opacity:0.004" fill="#fefffe" d="M 75.5,84.5 C 76.2506,83.4265 77.2506,83.2599 78.5,84C 77.552,84.4828 76.552,84.6495 75.5,84.5 Z"/></g>
<g><path style="opacity:0.004" fill="#fefffe" d="M 80.5,84.5 C 81.2506,83.4265 82.2506,83.2599 83.5,84C 82.552,84.4828 81.552,84.6495 80.5,84.5 Z"/></g>
</svg>
