<?xml version="1.0" encoding="utf-8"?>
<!-- Generator: Adobe Illustrator 26.4.1, SVG Export Plug-In . SVG Version: 6.00 Build 0)  -->
<svg version="1.1" id="Слой_1" xmlns="http://www.w3.org/2000/svg" xmlns:xlink="http://www.w3.org/1999/xlink" x="0px" y="0px"
	 viewBox="0 0 135 115" style="enable-background:new 0 0 135 115;" xml:space="preserve">
<style type="text/css">
	.st0{opacity:0.998;fill-rule:evenodd;clip-rule:evenodd;fill:#282828;enable-background:new    ;}
	.st1{fill-rule:evenodd;clip-rule:evenodd;fill:#4C4C4C;stroke:#E0E0E0;stroke-width:2;stroke-miterlimit:10;}
</style>
<g>
	<path class="st0" d="M66.5,5.5c1.2,0.5,2.4,1.2,3.5,2c4.5,10,9.3,19.9,14.5,29.5c9.9,2.1,19.9,3.8,30,5c4.8-0.2,6.6,2,5.5,6.5
		c-8.4,7.4-16.6,15.3-24.5,23.5c2.2,10.8,4.2,21.6,6,32.5c-0.3,2.1-1.4,3.4-3.5,4c-10.6-4.8-20.9-10.1-31-16
		c-9.6,5.6-19.5,10.7-29.5,15.5c-3.4,1.2-5.1,0.1-5-3.5c1.5-10.4,3.2-20.7,5-31c-0.3-1-0.7-2-1-3C28,62.8,20,54.7,12.5,46
		c1-2.8,3-4.1,6-4c10-1.3,20-2.8,30-4.5c5.4-9.8,10.6-19.8,15.5-30C65,6.9,65.8,6.3,66.5,5.5z"/>
</g>
<circle class="st1" cx="67.1" cy="61.5" r="26.1"/>
<polygon class="st1" points="73.6,72.4 60.9,72.6 54.4,61.8 60.5,50.7 73.2,50.5 79.7,61.3 "/>
</svg>
