<?xml version="1.0" encoding="utf-8"?>
<!-- Generator: Adobe Illustrator 26.4.1, SVG Export Plug-In . SVG Version: 6.00 Build 0)  -->
<svg version="1.1" id="Слой_1" xmlns="http://www.w3.org/2000/svg" xmlns:xlink="http://www.w3.org/1999/xlink" x="0px" y="0px"
	 viewBox="0 0 110 110" style="enable-background:new 0 0 110 110;" xml:space="preserve">
<style type="text/css">
	.st0{opacity:0.994;fill-rule:evenodd;clip-rule:evenodd;fill:#282828;enable-background:new    ;}
	.st1{opacity:4.000000e-03;fill-rule:evenodd;clip-rule:evenodd;fill:#FEFFFE;enable-background:new    ;}
	.st2{opacity:6.000000e-03;fill-rule:evenodd;clip-rule:evenodd;fill:#FEFFFE;enable-background:new    ;}
	.st3{opacity:8.000000e-03;fill-rule:evenodd;clip-rule:evenodd;fill:#FEFFFE;enable-background:new    ;}
	.st4{opacity:9.000000e-03;fill-rule:evenodd;clip-rule:evenodd;fill:#FEFFFE;enable-background:new    ;}
	.st5{opacity:0.32;fill-rule:evenodd;clip-rule:evenodd;fill:#FEFFFE;enable-background:new    ;}
	.st6{fill-rule:evenodd;clip-rule:evenodd;fill:none;stroke:#C7C7C7;stroke-miterlimit:10;}
	.st7{opacity:4.300000e-02;fill-rule:evenodd;clip-rule:evenodd;fill:#FEFFFE;enable-background:new    ;}
</style>
<g>
	<path class="st0" d="M103.5,78.5c-26.6,0-52.9,0-79,0c26.3,1,52.7,1.3,79,1c-1.1,2.6-2.7,4.7-5,6.5c-29.7,0.7-59.3,0.7-89,0
		c-2-2-4-4-6-6C19,54.9,34.3,29.8,49.5,4.5c4.4-1.7,8.2-1,11.5,2C75.5,30.4,89.6,54.4,103.5,78.5z M79.5,69.5
		c-16.3,1.3-32.7,1.3-49,0c7.6-13.4,15.4-26.8,23.5-40C62.8,42.7,71.3,56,79.5,69.5z"/>
</g>
<g>
	<path class="st1" d="M82.5,9.5C83.8,10.2,83.8,10.2,82.5,9.5z"/>
</g>
<g>
	<path class="st1" d="M88.5,10.5C89.8,11.2,89.8,11.2,88.5,10.5z"/>
</g>
<g>
	<path class="st1" d="M88.5,14.5C89.8,15.2,89.8,15.2,88.5,14.5z"/>
</g>
<g>
	<path class="st1" d="M88.5,21.5C89.8,22.2,89.8,22.2,88.5,21.5z"/>
</g>
<g>
	<path class="st2" d="M94.5,31.5c1,0.4,1.2,1.1,0.5,2C94.5,32.9,94.4,32.2,94.5,31.5z"/>
</g>
<g>
	<path class="st1" d="M94.5,35.5C93.8,34.2,93.8,34.2,94.5,35.5z"/>
</g>
<g>
	<path class="st3" d="M94.5,35.5c1,0.4,1.2,1.1,0.5,2C94.5,36.9,94.4,36.2,94.5,35.5z"/>
</g>
<g>
	<path class="st4" d="M94.5,38.5c0.8,0.3,1.5,0.8,2,1.5C95.2,40.5,94.5,40,94.5,38.5z"/>
</g>
<g>
	<path class="st1" d="M98.5,46.5C99.8,47.2,99.8,47.2,98.5,46.5z"/>
</g>
<g>
	<path class="st5" d="M30.5,69.5c16.3,1.3,32.7,1.3,49,0c3.8,0.9,7.5,1.3,11,1c-20.3,1.3-40.7,1.3-61,0C29.6,69.9,30,69.6,30.5,69.5
		z"/>
</g>
<polygon class="st6" points="12.9,78.5 53.5,11.8 95.5,78.5 13.6,78.5 "/>
<g>
	<path class="st7" d="M103.5,78.5c1.3,0.3,1.3,0.7,0,1c-26.3,0.3-52.7,0-79-1C50.6,78.5,76.9,78.5,103.5,78.5z"/>
</g>
</svg>
