<?xml version="1.0" encoding="UTF-8"?>
<!DOCTYPE svg PUBLIC "-//W3C//DTD SVG 1.1//EN" "http://www.w3.org/Graphics/SVG/1.1/DTD/svg11.dtd">
<svg xmlns="http://www.w3.org/2000/svg" version="1.1" width="110px" height="110px" style="shape-rendering:geometricPrecision; text-rendering:geometricPrecision; image-rendering:optimizeQuality; fill-rule:evenodd; clip-rule:evenodd" xmlns:xlink="http://www.w3.org/1999/xlink">
<g><path style="opacity:0.994" fill="#101010" d="M 103.5,78.5 C 76.8906,78.4844 50.5573,78.4844 24.5,78.5C 50.8249,79.4998 77.1582,79.8331 103.5,79.5C 102.432,82.0752 100.765,84.2419 98.5,86C 68.8333,86.6667 39.1667,86.6667 9.5,86C 7.5,84 5.5,82 3.5,80C 18.9589,54.9167 34.2922,29.75 49.5,4.5C 53.8785,2.8114 57.7118,3.47807 61,6.5C 75.4552,30.4228 89.6218,54.4228 103.5,78.5 Z M 79.5,69.5 C 63.1667,70.8333 46.8333,70.8333 30.5,69.5C 38.1065,56.0539 45.9399,42.7205 54,29.5C 62.7603,42.6922 71.2603,56.0255 79.5,69.5 Z"/></g>
<g><path style="opacity:0.004" fill="#fefffe" d="M 82.5,9.5 C 83.8333,10.1667 83.8333,10.1667 82.5,9.5 Z"/></g>
<g><path style="opacity:0.004" fill="#fefffe" d="M 88.5,10.5 C 89.8333,11.1667 89.8333,11.1667 88.5,10.5 Z"/></g>
<g><path style="opacity:0.004" fill="#fefffe" d="M 88.5,14.5 C 89.8333,15.1667 89.8333,15.1667 88.5,14.5 Z"/></g>
<g><path style="opacity:0.004" fill="#fefffe" d="M 88.5,21.5 C 89.8333,22.1667 89.8333,22.1667 88.5,21.5 Z"/></g>
<g><path style="opacity:0.006" fill="#fefffe" d="M 94.5,31.5 C 95.525,31.8966 95.6917,32.5632 95,33.5C 94.5357,32.9056 94.369,32.2389 94.5,31.5 Z"/></g>
<g><path style="opacity:0.004" fill="#fefffe" d="M 94.5,35.5 C 93.8333,34.1667 93.8333,34.1667 94.5,35.5 Z"/></g>
<g><path style="opacity:0.008" fill="#fefffe" d="M 94.5,35.5 C 95.525,35.8966 95.6917,36.5632 95,37.5C 94.5357,36.9056 94.369,36.2389 94.5,35.5 Z"/></g>
<g><path style="opacity:0.009" fill="#fefffe" d="M 94.5,38.5 C 95.2891,38.7828 95.9558,39.2828 96.5,40C 95.184,40.5281 94.5173,40.0281 94.5,38.5 Z"/></g>
<g><path style="opacity:0.004" fill="#fefffe" d="M 98.5,46.5 C 99.8333,47.1667 99.8333,47.1667 98.5,46.5 Z"/></g>
<g><path style="opacity:0.32" fill="#fefffe" d="M 30.5,69.5 C 46.8333,70.8333 63.1667,70.8333 79.5,69.5C 83.3465,70.4342 87.0131,70.7675 90.5,70.5C 70.1667,71.8333 49.8333,71.8333 29.5,70.5C 29.6236,69.8933 29.9569,69.56 30.5,69.5 Z"/></g>
<g><path style="opacity:0.043" fill="#fefffe" d="M 103.5,78.5 C 104.833,78.8333 104.833,79.1667 103.5,79.5C 77.1582,79.8331 50.8249,79.4998 24.5,78.5C 50.5573,78.4844 76.8906,78.4844 103.5,78.5 Z"/></g>
</svg>
